<svg width="32" height="32" viewBox="0 0 32 32" fill="none" xmlns="http://www.w3.org/2000/svg">
<path d="M26.4258 17.634H16.8671V29.7266H26.4258V17.634Z" fill="#0CE466"/>
<path d="M15.1239 17.634H5.56519V29.7266H15.1239V17.634Z" fill="#0CE466"/>
<path d="M23.4477 7.92934C23.7063 7.45563 23.8534 6.9128 23.8534 6.33615C23.8535 4.49657 22.3568 3 20.5173 3C19.1567 3 17.7645 3.70303 16.6979 4.92884C16.434 5.23217 16.1989 5.55816 15.9955 5.89767C15.7922 5.55816 15.5571 5.23217 15.2931 4.92884C14.2265 3.70303 12.8344 3 11.4738 3C9.63425 3 8.13763 4.49662 8.13763 6.33615C8.13763 6.91275 8.28473 7.45563 8.54332 7.92934H4V15.8908H15.124V7.92934H16.867V15.8908H27.9911V7.92934H23.4477ZM11.4738 7.92934C10.5954 7.92934 9.88064 7.21462 9.88064 6.33615C9.88064 5.45768 10.5954 4.74301 11.4738 4.74301C13.0554 4.74301 14.5591 6.36084 14.9967 7.92929H11.4738V7.92934ZM20.5173 7.92934H16.9944C17.432 6.36084 18.9357 4.74306 20.5173 4.74306C21.3957 4.74306 22.1105 5.45778 22.1105 6.3362C22.1104 7.21467 21.3957 7.92934 20.5173 7.92934Z" fill="#0CE466"/>
</svg>
